{"title":"The Coroner S01E07 - The Salcombe Selkie x264 RB58.mp4","uid":12831237,"size":517587876,"categoryP":"video","categoryS":"tv_shows","magnet":"?xt=urn:btih:c3aa8c6a0fe3938e348e58950668d92b18159054&amp;dn=The+Coroner+S01E07+-+The+Salcombe+Selkie+x264+RB58.mp4&amp;tr=udp%3A%2F%2Ftracker.leechers-paradise.org%3A6969&amp;tr=udp%3A%2F%2Fzer0day.ch%3A1337&amp;tr=udp%3A%2F%2Fopen.demonii.com%3A1337&amp;tr=udp%3A%2F%2Ftracker.coppersurfer.tk%3A6969&amp;tr=udp%3A%2F%2Fexodus.desync.com%3A6969","seeders":0,"leechers":1,"uploader":"RedBaron58","files":1,"time":1448399028,"description":"The Coroner (2015) S01E07 - The Salcombe Selkie x264 mp4\r\n \nhttp://www.imdb.com/title/tt5194866/\r\n\r\nNo Trailer at Present\r\n\r\n\r\nPlease be patient My intial upload speed is limited.\r\nThank you for your kind comments and feedback on my other torrents, your feedback is welcome.\r\n\r\n\r\nAbout the Episode:\r\nLighthaven is stunned when a teenage girl appears to return from the dead, leaving the town \r\nto wonder where she has been for a year and who is buried in her place.\r\n \r\nStarring Claire Goose and Matt Bardock\r\n\r\n\r\nI hope you enjoy.\r\n\r\n\r\nTechnical:\r\n\r\nGeneral\r\nComplete name                            : G:The Coroner S01E07 - The Salcombe Selkie x264 RB58.mp4\r\nFormat                                   : MPEG-4\r\nFormat profile                           : Base Media\r\nCodec ID                                 : isom\r\nFile size                                : 494 MiB\r\nDuration                                 : 45mn 7s\r\nOverall bit rate                         : 1 530 Kbps\r\nWriting application                      : Lavf54.63.104\r\n\r\nVideo\r\nID                                       : 1\r\nFormat                                   : AVC\r\nFormat/Info                              : Advanced Video Codec\r\nFormat profile                           :   \r\nFormat settings, CABAC                   : Yes\r\nFormat settings, ReFrames                : 4 frames\r\nCodec ID                                 : avc1\r\nCodec ID/Info                            : Advanced Video Coding\r\nDuration                                 : 45mn 7s\r\nBit rate                                 : 1 400 Kbps\r\nWidth                                    : 832 pixels\r\nHeight                                   : 468 pixels\r\nDisplay aspect ratio                     : 16:9\r\nFrame rate mode                          : Constant\r\nFrame rate                               : 50.000 fps\r\nColor space                              : YUV\r\nChroma subsampling                       : 4:2:0\r\nBit depth                                : 8 bits\r\nScan type                                : Progressive\r\nBits/(Pixel*Frame)                       : 0.072\r\nStream size                              : 452 MiB (91%)\r\nWriting library                          : x264 core 123 r2189 35cf912\r\nEncoding settings                        : cabac=1 / ref=3 / deblock=1:0:0\r\n\r\nAudio\r\nID                                       : 2\r\nFormat                                   : AAC\r\nFormat/Info                              : Advanced Audio Codec\r\nFormat profile                           : LC\r\nCodec ID                                 : 40\r\nDuration                                 : 45mn 7s\r\nBit rate mode                            : Constant\r\nBit rate                                 : 118 Kbps\r\nChannel(s)                               : 2 channels\r\nChannel positions                        : Front: L R\r\nSampling rate                            : 48.0 KHz\r\nCompression mode                         : Lossy\r\nStream size                              : 38.0 MiB (8%)\r\nLanguage                                 : English","torrent":{"xt":"urn:btih:c3aa8c6a0fe3938e348e58950668d92b18159054","amp;dn":"The+Coroner+S01E07+-+The+Salcombe+Selkie+x264+RB58.mp4","amp;tr":["udp%3A%2F%2Ftracker.leechers-paradise.org%3A6969","udp%3A%2F%2Fzer0day.ch%3A1337","udp%3A%2F%2Fopen.demonii.com%3A1337","udp%3A%2F%2Ftracker.coppersurfer.tk%3A6969","udp%3A%2F%2Fexodus.desync.com%3A6969"],"infoHash":"c3aa8c6a0fe3938e348e58950668d92b18159054","infoHashBuffer":{"type":"Buffer","data":[195,170,140,106,15,227,147,142,52,142,88,149,6,104,217,43,24,21,144,84]},"announce":[],"urlList":[]}}